<svg width="39" height="39" viewBox="0 0 39 39" fill="none" xmlns="http://www.w3.org/2000/svg">
<circle cx="19.5" cy="19.5" r="19.5" fill="#D9D9D9"/>
<g clip-path="url(#clip0_1_15)">
<path d="M25.6875 15.375C25.6875 17.016 25.0356 18.5898 23.8752 19.7502C22.7148 20.9106 21.141 21.5625 19.5 21.5625C17.859 21.5625 16.2852 20.9106 15.1248 19.7502C13.9644 18.5898 13.3125 17.016 13.3125 15.375C13.3125 13.734 13.9644 12.1602 15.1248 10.9998C16.2852 9.8394 17.859 9.1875 19.5 9.1875C21.141 9.1875 22.7148 9.8394 23.8752 10.9998C25.0356 12.1602 25.6875 13.734 25.6875 15.375Z" fill="#0FA958"/>
<path fill-rule="evenodd" clip-rule="evenodd" d="M3 19.5C3 15.1239 4.73839 10.9271 7.83274 7.83274C10.9271 4.73839 15.1239 3 19.5 3C23.8761 3 28.0729 4.73839 31.1673 7.83274C34.2616 10.9271 36 15.1239 36 19.5C36 23.8761 34.2616 28.0729 31.1673 31.1673C28.0729 34.2616 23.8761 36 19.5 36C15.1239 36 10.9271 34.2616 7.83274 31.1673C4.73839 28.0729 3 23.8761 3 19.5ZM19.5 5.0625C16.7812 5.06264 14.1176 5.8305 11.816 7.27768C9.51428 8.72487 7.66802 10.7926 6.48968 13.2428C5.31133 15.693 4.8488 18.4261 5.15531 21.1276C5.46182 23.8291 6.52492 26.3892 8.22225 28.5131C9.68663 26.1536 12.9103 23.625 19.5 23.625C26.0897 23.625 29.3113 26.1516 30.7778 28.5131C32.4751 26.3892 33.5382 23.8291 33.8447 21.1276C34.1512 18.4261 33.6887 15.693 32.5103 13.2428C31.332 10.7926 29.4857 8.72487 27.184 7.27768C24.8824 5.8305 22.2188 5.06264 19.5 5.0625Z" fill="#0FA958"/>
</g>
<defs>
<clipPath id="clip0_1_15">
<rect width="33" height="33" fill="white" transform="translate(3 3)"/>
</clipPath>
</defs>
</svg>
