<svg width="252" height="36" viewBox="0 0 252 36" fill="none" xmlns="http://www.w3.org/2000/svg">
<path d="M58.9161 14.9581C59.0593 14.9581 59.131 15.0298 59.131 15.173V15.7532C59.131 15.8965 59.0593 15.9681 58.9161 15.9681H54.6184C54.5611 15.9681 54.5325 15.9967 54.5325 16.054V29.7851C54.5325 29.9284 54.4608 30 54.3176 30H53.6085C53.4652 30 53.3936 29.9284 53.3936 29.7851V16.054C53.3936 15.9967 53.3649 15.9681 53.3076 15.9681H49.2248C49.0816 15.9681 49.01 15.8965 49.01 15.7532V15.173C49.01 15.0298 49.0816 14.9581 49.2248 14.9581H58.9161ZM71.0448 15.173C71.0448 15.0298 71.1164 14.9581 71.2597 14.9581H71.9688C72.112 14.9581 72.1837 15.0298 72.1837 15.173V29.7851C72.1837 29.9284 72.112 30 71.9688 30H71.2597C71.1164 30 71.0448 29.9284 71.0448 29.7851V23.0378C71.0448 22.9805 71.0161 22.9518 70.9588 22.9518H63.5668C63.5095 22.9518 63.4809 22.9805 63.4809 23.0378V29.7851C63.4809 29.9284 63.4092 30 63.266 30H62.5569C62.4136 30 62.342 29.9284 62.342 29.7851V15.173C62.342 15.0298 62.4136 14.9581 62.5569 14.9581H63.266C63.4092 14.9581 63.4809 15.0298 63.4809 15.173V21.8559C63.4809 21.9132 63.5095 21.9419 63.5668 21.9419H70.9588C71.0161 21.9419 71.0448 21.9132 71.0448 21.8559V15.173ZM86.1325 15.7532C86.1325 15.8965 86.0608 15.9681 85.9176 15.9681H77.7735C77.7162 15.9681 77.6875 15.9967 77.6875 16.054V21.8559C77.6875 21.9132 77.7162 21.9419 77.7735 21.9419H83.5539C83.6971 21.9419 83.7687 22.0135 83.7687 22.1567V22.7369C83.7687 22.8802 83.6971 22.9518 83.5539 22.9518H77.7735C77.7162 22.9518 77.6875 22.9805 77.6875 23.0378V28.9041C77.6875 28.9614 77.7162 28.99 77.7735 28.99H85.9176C86.0608 28.99 86.1325 29.0617 86.1325 29.2049V29.7851C86.1325 29.9284 86.0608 30 85.9176 30H76.7635C76.6203 30 76.5486 29.9284 76.5486 29.7851V15.173C76.5486 15.0298 76.6203 14.9581 76.7635 14.9581H85.9176C86.0608 14.9581 86.1325 15.0298 86.1325 15.173V15.7532ZM102.754 30C102.625 30 102.539 29.9427 102.496 29.8281L101.572 26.9701C101.558 26.9272 101.529 26.9057 101.486 26.9057H94.782C94.7391 26.9057 94.7104 26.9272 94.6961 26.9701L93.7936 29.8281C93.7506 29.9427 93.6646 30 93.5357 30H92.7836C92.626 30 92.5687 29.9212 92.6117 29.7636L97.3821 15.13C97.4251 15.0154 97.5111 14.9581 97.64 14.9581H98.607C98.7359 14.9581 98.8218 15.0154 98.8648 15.13L103.657 29.7636L103.678 29.8496C103.678 29.9499 103.614 30 103.485 30H102.754ZM95.0399 25.8527C95.0256 25.8814 95.0256 25.91 95.0399 25.9387C95.0685 25.953 95.0972 25.9602 95.1258 25.9602H101.143C101.171 25.9602 101.193 25.953 101.207 25.9387C101.236 25.91 101.243 25.8814 101.229 25.8527L98.1987 16.5053C98.1844 16.4767 98.1629 16.4623 98.1342 16.4623C98.1056 16.4623 98.0841 16.4767 98.0698 16.5053L95.0399 25.8527ZM108.63 30C108.487 30 108.416 29.9284 108.416 29.7851V23.1667C108.416 23.1094 108.408 23.0736 108.394 23.0593L103.903 15.216C103.874 15.1587 103.86 15.1157 103.86 15.0871C103.86 15.0011 103.924 14.9581 104.053 14.9581H104.784C104.884 14.9581 104.97 15.0083 105.042 15.1086L108.91 21.8559C108.924 21.8702 108.946 21.8774 108.974 21.8774C109.003 21.8774 109.024 21.8702 109.039 21.8559L112.907 15.1086C112.978 15.0083 113.064 14.9581 113.164 14.9581H113.895C113.981 14.9581 114.038 14.9868 114.067 15.0441C114.096 15.0871 114.088 15.1444 114.046 15.216L109.554 23.0593C109.54 23.0736 109.533 23.1094 109.533 23.1667V29.7851C109.533 29.9284 109.461 30 109.318 30H108.63ZM121.926 30.1719C120.937 30.1719 120.063 29.9785 119.304 29.5917C118.559 29.1906 117.979 28.6319 117.563 27.9156C117.148 27.1993 116.94 26.3756 116.94 25.4445V15.173C116.94 15.0298 117.012 14.9581 117.155 14.9581H117.864C118.007 14.9581 118.079 15.0298 118.079 15.173V25.4874C118.079 26.5905 118.43 27.4787 119.132 28.152C119.848 28.8253 120.779 29.162 121.926 29.162C123.086 29.162 124.017 28.8253 124.719 28.152C125.421 27.4787 125.772 26.5905 125.772 25.4874V15.173C125.772 15.0298 125.844 14.9581 125.987 14.9581H126.696C126.839 14.9581 126.911 15.0298 126.911 15.173V25.4445C126.911 26.3756 126.703 27.1993 126.288 27.9156C125.872 28.6319 125.285 29.1906 124.526 29.5917C123.781 29.9785 122.914 30.1719 121.926 30.1719ZM140.069 30C139.94 30 139.854 29.9499 139.811 29.8496L136.523 23.0163C136.509 22.9733 136.48 22.9518 136.437 22.9518H132.376C132.318 22.9518 132.29 22.9805 132.29 23.0378V29.7851C132.29 29.9284 132.218 30 132.075 30H131.366C131.223 30 131.151 29.9284 131.151 29.7851V15.173C131.151 15.0298 131.223 14.9581 131.366 14.9581H136.781C137.984 14.9581 138.951 15.3306 139.682 16.0755C140.427 16.8205 140.799 17.7946 140.799 18.998C140.799 20.0151 140.52 20.8746 139.961 21.5766C139.402 22.2642 138.65 22.694 137.705 22.8659C137.633 22.8945 137.612 22.9303 137.64 22.9733L140.928 29.7421C140.942 29.7708 140.95 29.8066 140.95 29.8496C140.95 29.9499 140.892 30 140.778 30H140.069ZM132.376 15.9681C132.318 15.9681 132.29 15.9967 132.29 16.054V21.9204C132.29 21.9777 132.318 22.0063 132.376 22.0063H136.673C137.562 22.0063 138.278 21.727 138.822 21.1683C139.381 20.6096 139.66 19.8861 139.66 18.998C139.66 18.0954 139.381 17.3648 138.822 16.8061C138.278 16.2474 137.562 15.9681 136.673 15.9681H132.376ZM147.814 30C147.685 30 147.599 29.9427 147.556 29.8281L142.807 15.1945L142.786 15.1086C142.786 15.0083 142.85 14.9581 142.979 14.9581H143.731C143.86 14.9581 143.946 15.0154 143.989 15.13L148.158 28.238C148.172 28.2666 148.194 28.2809 148.222 28.2809C148.251 28.2809 148.272 28.2666 148.287 28.238L152.498 15.13C152.541 15.0154 152.627 14.9581 152.756 14.9581H153.465C153.623 14.9581 153.68 15.0369 153.637 15.1945L148.867 29.8281C148.824 29.9427 148.738 30 148.609 30H147.814ZM165.895 15.7532C165.895 15.8965 165.824 15.9681 165.681 15.9681H157.536C157.479 15.9681 157.451 15.9967 157.451 16.054V21.8559C157.451 21.9132 157.479 21.9419 157.536 21.9419H163.317C163.46 21.9419 163.532 22.0135 163.532 22.1567V22.7369C163.532 22.8802 163.46 22.9518 163.317 22.9518H157.536C157.479 22.9518 157.451 22.9805 157.451 23.0378V28.9041C157.451 28.9614 157.479 28.99 157.536 28.99H165.681C165.824 28.99 165.895 29.0617 165.895 29.2049V29.7851C165.895 29.9284 165.824 30 165.681 30H156.527C156.383 30 156.312 29.9284 156.312 29.7851V15.173C156.312 15.0298 156.383 14.9581 156.527 14.9581H165.681C165.824 14.9581 165.895 15.0298 165.895 15.173V15.7532ZM169.663 30C169.52 30 169.448 29.9284 169.448 29.7851V15.173C169.448 15.0298 169.52 14.9581 169.663 14.9581H174.648C176.024 14.9581 177.112 15.3234 177.914 16.054C178.717 16.7703 179.118 17.7516 179.118 18.998V25.9602C179.118 27.2065 178.717 28.195 177.914 28.9256C177.112 29.6419 176.024 30 174.648 30H169.663ZM170.587 28.9041C170.587 28.9614 170.616 28.99 170.673 28.99H174.713C175.716 28.99 176.503 28.7107 177.076 28.152C177.664 27.579 177.965 26.8054 177.979 25.8313V19.1269C177.979 18.1527 177.685 17.3863 177.098 16.8276C176.525 16.2546 175.73 15.9681 174.713 15.9681H170.673C170.616 15.9681 170.587 15.9967 170.587 16.054V28.9041ZM191.079 30C190.95 30 190.864 29.9427 190.821 29.8281L189.897 26.9701C189.883 26.9272 189.854 26.9057 189.811 26.9057H183.107C183.064 26.9057 183.035 26.9272 183.021 26.9701L182.118 29.8281C182.075 29.9427 181.989 30 181.86 30H181.108C180.951 30 180.893 29.9212 180.936 29.7636L185.707 15.13C185.75 15.0154 185.836 14.9581 185.965 14.9581H186.932C187.061 14.9581 187.147 15.0154 187.19 15.13L191.981 29.7636L192.003 29.8496C192.003 29.9499 191.939 30 191.81 30H191.079ZM183.365 25.8527C183.35 25.8814 183.35 25.91 183.365 25.9387C183.393 25.953 183.422 25.9602 183.451 25.9602H189.467C189.496 25.9602 189.517 25.953 189.532 25.9387C189.56 25.91 189.568 25.8814 189.553 25.8527L186.523 16.5053C186.509 16.4767 186.488 16.4623 186.459 16.4623C186.43 16.4623 186.409 16.4767 186.395 16.5053L183.365 25.8527ZM195.201 30C195.058 30 194.986 29.9284 194.986 29.7851V15.173C194.986 15.0298 195.058 14.9581 195.201 14.9581H195.91C196.054 14.9581 196.125 15.0298 196.125 15.173V28.9041C196.125 28.9614 196.154 28.99 196.211 28.99H203.926C204.069 28.99 204.141 29.0617 204.141 29.2049V29.7851C204.141 29.9284 204.069 30 203.926 30H195.201ZM216.995 30C216.866 30 216.78 29.9427 216.737 29.8281L215.813 26.9701C215.799 26.9272 215.77 26.9057 215.727 26.9057H209.023C208.98 26.9057 208.951 26.9272 208.937 26.9701L208.034 29.8281C207.991 29.9427 207.906 30 207.777 30H207.025C206.867 30 206.81 29.9212 206.853 29.7636L211.623 15.13C211.666 15.0154 211.752 14.9581 211.881 14.9581H212.848C212.977 14.9581 213.063 15.0154 213.106 15.13L217.898 29.7636L217.919 29.8496C217.919 29.9499 217.855 30 217.726 30H216.995ZM209.281 25.8527C209.266 25.8814 209.266 25.91 209.281 25.9387C209.309 25.953 209.338 25.9602 209.367 25.9602H215.383C215.412 25.9602 215.434 25.953 215.448 25.9387C215.477 25.91 215.484 25.8814 215.469 25.8527L212.44 16.5053C212.425 16.4767 212.404 16.4623 212.375 16.4623C212.346 16.4623 212.325 16.4767 212.311 16.5053L209.281 25.8527ZM222.871 30C222.728 30 222.656 29.9284 222.656 29.7851V23.1667C222.656 23.1094 222.649 23.0736 222.635 23.0593L218.144 15.216C218.115 15.1587 218.101 15.1157 218.101 15.0871C218.101 15.0011 218.165 14.9581 218.294 14.9581H219.025C219.125 14.9581 219.211 15.0083 219.283 15.1086L223.151 21.8559C223.165 21.8702 223.187 21.8774 223.215 21.8774C223.244 21.8774 223.265 21.8702 223.28 21.8559L227.148 15.1086C227.219 15.0083 227.305 14.9581 227.405 14.9581H228.136C228.222 14.9581 228.279 14.9868 228.308 15.0441C228.337 15.0871 228.329 15.1444 228.286 15.216L223.795 23.0593C223.781 23.0736 223.774 23.1094 223.774 23.1667V29.7851C223.774 29.9284 223.702 30 223.559 30H222.871ZM238.63 30C238.501 30 238.416 29.9427 238.373 29.8281L237.449 26.9701C237.434 26.9272 237.406 26.9057 237.363 26.9057H230.658C230.615 26.9057 230.587 26.9272 230.572 26.9701L229.67 29.8281C229.627 29.9427 229.541 30 229.412 30H228.66C228.502 30 228.445 29.9212 228.488 29.7636L233.258 15.13C233.301 15.0154 233.387 14.9581 233.516 14.9581H234.483C234.612 14.9581 234.698 15.0154 234.741 15.13L239.533 29.7636L239.554 29.8496C239.554 29.9499 239.49 30 239.361 30H238.63ZM230.916 25.8527C230.902 25.8814 230.902 25.91 230.916 25.9387C230.945 25.953 230.973 25.9602 231.002 25.9602H237.019C237.047 25.9602 237.069 25.953 237.083 25.9387C237.112 25.91 237.119 25.8814 237.105 25.8527L234.075 16.5053C234.061 16.4767 234.039 16.4623 234.01 16.4623C233.982 16.4623 233.96 16.4767 233.946 16.5053L230.916 25.8527Z" fill="black"/>
<path d="M23.7657 10.6565C23.7657 10.6565 20.6861 11.4693 16.3998 17.8987C13.0895 22.8627 12.7576 26.7524 9.9873 29.3596C8.57824 30.6843 6.30574 31.5927 6.30574 31.5927C6.30574 31.5927 4.48605 31.5506 4.3623 31.6349C4.23855 31.7165 3.87574 32.6277 4.55637 33.7471C5.11887 34.6724 5.97668 34.9059 6.26637 34.9452C6.55605 34.9874 7.09324 33.7443 7.30137 33.5784C7.50949 33.4124 9.95355 32.4731 11.6889 30.5577C15.2467 26.6259 15.1904 23.2143 17.7723 18.7227C20.627 13.7587 24.1454 11.3568 24.1454 11.3568L23.7657 10.6565Z" fill="#5B9821"/>
<path d="M34.5066 0.953399C34.3969 0.832461 27.3797 0.939336 23.7769 4.1934C19.4963 8.05777 20.655 13.4071 20.655 13.4071C20.655 13.4071 25.6529 14.5912 29.4244 11.1768C33.8232 7.19715 34.6163 1.07434 34.5066 0.953399ZM20.3625 19.8253C20.5932 20.0053 20.925 20.2162 21.4004 20.4525C24.0891 21.7968 27.4472 21.06 29.0925 20.4075C31.3791 19.499 34.7766 16.7653 34.7766 16.5571C34.7766 16.349 33.2297 15.6065 31.0304 14.9512C28.831 14.2959 25.8919 14.265 23.6588 15.2184C21.6113 16.0931 20.6579 17.6315 20.1319 18.554C20.1319 18.554 19.3163 18.6834 18.7257 18.7846C17.685 18.9618 16.8835 19.319 16.8835 19.319L16.0819 20.984C16.0819 20.984 17.716 20.2415 18.5485 20.0615C19.381 19.8815 20.3625 19.8253 20.3625 19.8253ZM15.2747 2.45527C15.0132 2.50871 13.7757 4.4409 13.0163 6.28871C12.4172 7.74277 11.8182 11.4581 12.8897 13.7475C13.9613 16.0368 15.2016 16.47 15.2016 16.47C15.2016 16.47 15.3535 17.1365 15.3366 18.0309C15.3282 18.5371 15.2775 19.9321 15.2775 19.9321L16.501 19.4006C16.501 19.4006 16.5825 18.2306 16.5769 17.6625C16.5685 17.0634 16.4954 16.3068 16.4954 16.3068C16.4954 16.3068 18.5175 14.414 18.6666 11.475C18.7847 9.15746 18.5372 7.0059 17.2604 4.68559C16.2591 2.87715 15.4238 2.42715 15.2747 2.45527ZM1.63129 7.01715C1.32754 7.36309 2.01661 8.23496 2.07848 10.1981C2.12629 11.804 2.40473 17.2434 4.01067 20.0362C5.61661 22.829 7.84411 23.5153 8.55848 23.7515C9.27286 23.9906 10.8169 24.0187 10.8169 24.0187C10.8169 24.0187 11.4722 24.584 11.7085 25.3856C11.9475 26.1872 12.1838 27.3768 12.1838 27.3768L13.3144 25.7118C13.3144 25.7118 12.9882 24.404 12.6591 23.8106C12.3329 23.2172 12.2119 23.009 12.2119 23.009C12.2119 23.009 12.9347 18.5118 11.7057 14.805C10.2516 10.4062 7.75411 8.74121 5.43661 7.75965C3.11911 6.77809 1.83942 6.7809 1.63129 7.01715ZM14.1469 26.159C14.1469 26.159 14.6785 25.8356 15.6291 25.8131C16.5038 25.7934 17.0466 25.9565 17.0466 25.9565C17.0466 25.9565 18.6807 24.0806 20.5088 23.5434C22.2329 23.0371 24.5082 22.5843 28.516 24.2465C32.5294 25.9115 34.8357 27.5259 34.8075 28.0322C34.7766 28.5384 30.8335 30.344 29.1994 30.9065C27.5654 31.4718 23.8163 32.6587 20.3007 31.3003C17.5079 30.2203 16.8835 27.644 16.8835 27.644C16.8835 27.644 16.2366 27.2868 15.4941 27.329C14.1357 27.4021 12.991 28.4175 12.991 28.4175L14.1469 26.159Z" fill="#5B9821"/>
<path d="M21.9292 10.89C22.3707 11.1628 23.476 8.39251 24.5448 7.11564C25.6135 5.83876 27.6076 4.53095 27.3995 3.96564C27.1913 3.40032 24.8429 4.2047 23.237 6.28314C21.6338 8.36439 21.5438 10.6538 21.9292 10.89ZM22.2301 17.8678C22.5507 18.3094 24.0217 17.2575 25.501 16.9172C27.0226 16.5656 28.651 17.0606 28.592 16.2338C28.5357 15.4519 26.3617 15.3731 24.9357 15.7584C23.5098 16.1438 21.8448 17.3306 22.2301 17.8678ZM14.206 13.6631C14.7488 13.6406 14.5632 11.97 14.5913 10.3922C14.6195 8.81439 14.8895 6.43782 14.2932 6.4097C13.6998 6.37876 13.1992 7.94814 13.1626 9.82689C13.1345 11.3738 13.4917 13.6913 14.206 13.6631ZM3.41447 10.7044C3.05728 10.8225 3.3104 11.655 3.32447 12.0431C3.41447 14.5997 4.27509 18.5541 5.6729 20.2781C6.75853 21.6169 7.9904 22.5956 8.8229 22.0022C9.6554 21.4088 8.07197 20.1263 7.27603 18.8522C5.99915 16.8019 5.19478 14.1863 4.77853 12.9066C4.36228 11.6269 4.08665 10.4794 3.41447 10.7044Z" fill="#8DC02C"/>
<path d="M18.9591 25.8863C19.0125 26.6653 20.7056 26.2575 22.5 26.0803C24.2944 25.9031 25.771 25.6556 25.7006 24.9975C25.636 24.3844 23.6306 24.3197 22.0472 24.4322C20.4638 24.5447 18.9113 25.1916 18.9591 25.8863Z" fill="#8DC02D"/>
</svg>
